<?xml version="1.0" encoding="UTF-8"?>
<svg width="16px" height="18px" viewBox="0 0 16 18" version="1.1" xmlns="http://www.w3.org/2000/svg" xmlns:xlink="http://www.w3.org/1999/xlink">
    <!-- Generator: Sketch 49.3 (51167) - http://www.bohemiancoding.com/sketch -->
    <title>ic_account</title>
    <desc>Created with Sketch.</desc>
    <defs>
        <filter x="-0.6%" y="-0.3%" width="101.4%" height="101.2%" filterUnits="objectBoundingBox" id="filter-1">
            <feOffset dx="0" dy="1" in="SourceAlpha" result="shadowOffsetOuter1"></feOffset>
            <feGaussianBlur stdDeviation="0.5" in="shadowOffsetOuter1" result="shadowBlurOuter1"></feGaussianBlur>
            <feColorMatrix values="0 0 0 0 0   0 0 0 0 0   0 0 0 0 0  0 0 0 0.1 0" type="matrix" in="shadowBlurOuter1" result="shadowMatrixOuter1"></feColorMatrix>
            <feMerge>
                <feMergeNode in="shadowMatrixOuter1"></feMergeNode>
                <feMergeNode in="SourceGraphic"></feMergeNode>
            </feMerge>
        </filter>
    </defs>
    <g id="Page-1" stroke="none" stroke-width="1" fill="none" fill-rule="evenodd">
        <g id="Login---Mobile" transform="translate(-150.000000, -355.000000)">
            <g id="content" filter="url(#filter-1)" transform="translate(5.000000, 96.000000)">
                <g id="form" transform="translate(13.000000, 11.000000)">
                    <g id="button" transform="translate(0.000000, 234.000000)">
                        <g id="user" transform="translate(131.000000, 12.000000)">
                            <g id="ic_account" transform="translate(0.000000, 2.000000)">
                                <g id="Icon-24px">
                                    <polygon id="Shape" points="0 0 18 0 18 18 0 18"></polygon>
                                    <path d="M14.25,2.25 L11.115,2.25 C10.8,1.38 9.975,0.75 9,0.75 C8.025,0.75 7.2,1.38 6.885,2.25 L3.75,2.25 C2.925,2.25 2.25,2.925 2.25,3.75 L2.25,14.25 C2.25,15.075 2.925,15.75 3.75,15.75 L14.25,15.75 C15.075,15.75 15.75,15.075 15.75,14.25 L15.75,3.75 C15.75,2.925 15.075,2.25 14.25,2.25 L14.25,2.25 Z M9,2.25 C9.4125,2.25 9.75,2.5875 9.75,3 C9.75,3.4125 9.4125,3.75 9,3.75 C8.5875,3.75 8.25,3.4125 8.25,3 C8.25,2.5875 8.5875,2.25 9,2.25 L9,2.25 Z M9,5.25 C10.245,5.25 11.25,6.255 11.25,7.5 C11.25,8.745 10.245,9.75 9,9.75 C7.755,9.75 6.75,8.745 6.75,7.5 C6.75,6.255 7.755,5.25 9,5.25 L9,5.25 Z M13.5,14.25 L4.5,14.25 L4.5,13.2 C4.5,11.7 7.5,10.875 9,10.875 C10.5,10.875 13.5,11.7 13.5,13.2 L13.5,14.25 L13.5,14.25 Z" id="Shape" fill="#FFFFFF"></path>
                                </g>
                            </g>
                        </g>
                    </g>
                </g>
            </g>
        </g>
    </g>
</svg>