<?xml version="1.0" encoding="UTF-8"?>
<svg width="18px" height="18px" viewBox="0 0 18 18" version="1.1" xmlns="http://www.w3.org/2000/svg" xmlns:xlink="http://www.w3.org/1999/xlink">
    <!-- Generator: Sketch 49.3 (51167) - http://www.bohemiancoding.com/sketch -->
    <title>ic_downloaddata</title>
    <desc>Created with Sketch.</desc>
    <defs></defs>
    <g id="Page-1" stroke="none" stroke-width="1" fill="none" fill-rule="evenodd">
        <g id="Borrowers---No-Data---Mobile" transform="translate(-87.000000, -373.000000)">
            <g id="button" transform="translate(18.000000, 360.000000)">
                <g id="user" transform="translate(66.000000, 10.000000)">
                    <g id="ic_downloaddata">
                        <g id="Icon-24px">
                            <path d="M19,3 L4.99,3 C3.88,3 3.01,3.9 3.01,5 L3,19 C3,20.1 3.88,21 4.99,21 L19,21 C20.1,21 21,20.1 21,19 L21,5 C21,3.9 20.1,3 19,3 L19,3 Z M19,15 L15,15 C15,16.66 13.65,18 12,18 C10.35,18 9,16.66 9,15 L4.99,15 L4.99,5 L19,5 L19,15 L19,15 Z M16,10 L14,10 L14,7 L10,7 L10,10 L8,10 L12,14 L16,10 L16,10 Z" id="Shape" fill="#FFFFFF"></path>
                            <polygon id="Shape" points="0 0 24 0 24 24 0 24"></polygon>
                        </g>
                    </g>
                </g>
            </g>
        </g>
    </g>
</svg>